<svg id="visual" viewBox="0 0 900 600" width="900" height="600" xmlns="http://www.w3.org/2000/svg" xmlns:xlink="http://www.w3.org/1999/xlink" version="1.1"><path d="M0 445L25 448C50 451 100 457 150 466.7C200 476.3 250 489.7 300 484.8C350 480 400 457 450 445.8C500 434.7 550 435.3 600 444C650 452.7 700 469.3 750 471.7C800 474 850 462 875 456L900 450L900 601L875 601C850 601 800 601 750 601C700 601 650 601 600 601C550 601 500 601 450 601C400 601 350 601 300 601C250 601 200 601 150 601C100 601 50 601 25 601L0 601Z" fill="#242424"></path><path d="M0 540L25 536.5C50 533 100 526 150 515.8C200 505.7 250 492.3 300 488.5C350 484.7 400 490.3 450 502C500 513.7 550 531.3 600 538.8C650 546.3 700 543.7 750 535.3C800 527 850 513 875 506L900 499L900 601L875 601C850 601 800 601 750 601C700 601 650 601 600 601C550 601 500 601 450 601C400 601 350 601 300 601C250 601 200 601 150 601C100 601 50 601 25 601L0 601Z" fill="#161616"></path><path d="M0 513L25 526.2C50 539.3 100 565.7 150 573.3C200 581 250 570 300 558.3C350 546.7 400 534.3 450 529.7C500 525 550 528 600 535.7C650 543.3 700 555.7 750 556.5C800 557.3 850 546.7 875 541.3L900 536L900 601L875 601C850 601 800 601 750 601C700 601 650 601 600 601C550 601 500 601 450 601C400 601 350 601 300 601C250 601 200 601 150 601C100 601 50 601 25 601L0 601Z" fill="#000000"></path></svg>